<?xml version="1.0" standalone="no"?>
<!DOCTYPE svg PUBLIC "-//W3C//DTD SVG 20010904//EN"
 "http://www.w3.org/TR/2001/REC-SVG-20010904/DTD/svg10.dtd">
<svg version="1.0" xmlns="http://www.w3.org/2000/svg"
 width="296.000000pt" height="296.000000pt" viewBox="0 0 296.000000 296.000000"
 preserveAspectRatio="xMidYMid meet">
<metadata>
Created by potrace 1.14, written by Peter Selinger 2001-2017
</metadata>
<g transform="translate(0.000000,296.000000) scale(0.100000,-0.100000)"
fill="#000000" stroke="none">
<path d="M1349 2955 c-3 -2 -27 -6 -54 -10 -178 -21 -386 -103 -554 -218 -98
-67 -274 -242 -334 -333 -230 -350 -288 -771 -157 -1148 36 -103 76 -192 89
-201 7 -4 5 -15 -6 -33 l-17 -27 23 23 c12 12 26 20 31 17 5 -3 16 10 25 29
11 23 26 37 44 41 31 7 81 -9 81 -25 0 -6 7 -4 16 4 16 17 44 21 60 8 5 -4 3
0 -3 8 -10 11 -19 12 -41 4 -21 -8 -33 -7 -56 7 -29 17 -72 13 -100 -11 -23
-19 -98 169 -133 334 -26 119 -23 370 5 492 87 382 327 691 666 854 123 59
170 75 309 105 91 19 133 23 255 20 208 -3 330 -32 519 -120 174 -82 340 -218
461 -380 109 -146 204 -381 231 -570 12 -88 7 -324 -9 -390 -6 -27 -14 -61
-16 -75 -16 -81 -88 -255 -103 -246 -4 3 -24 -3 -44 -13 -22 -11 -41 -15 -49
-10 -19 12 -32 11 -54 -6 -18 -14 -17 -14 8 -4 21 9 31 9 43 -1 8 -7 12 -17 9
-24 -3 -6 3 -1 13 10 40 47 113 37 132 -17 5 -16 12 -29 15 -29 7 0 2 37 -6
45 -3 4 11 48 32 99 74 180 100 324 95 526 -4 162 -6 177 -41 306 -111 417
-426 755 -834 894 -123 42 -248 62 -401 66 -81 2 -148 1 -150 -1z m125 -23 c2
-4 -10 -8 -27 -9 -30 -1 -30 -1 -7 7 14 4 26 8 27 9 1 1 4 -3 7 -7z m36 4 c0
-3 -4 -8 -10 -11 -5 -3 -10 -1 -10 4 0 6 5 11 10 11 6 0 10 -2 10 -4z m35 -14
c-3 -3 -11 0 -18 7 -9 10 -8 11 6 5 10 -3 15 -9 12 -12z m-142 1 c-7 -2 -19
-2 -25 0 -7 3 -2 5 12 5 14 0 19 -2 13 -5z m232 -3 c-4 -7 -75 -1 -75 6 0 3
18 4 39 2 22 -1 38 -5 36 -8z m-325 -4 c0 -2 -13 -6 -29 -8 -17 -2 -28 -1 -25
4 5 8 54 12 54 4z m373 -3 c-7 -2 -19 -2 -25 0 -7 3 -2 5 12 5 14 0 19 -2 13
-5z m77 -13 c8 -5 11 -10 5 -10 -5 0 -17 5 -25 10 -8 5 -10 10 -5 10 6 0 17
-5 25 -10z m74 -19 c4 -5 -3 -7 -14 -4 -23 6 -26 13 -6 13 8 0 17 -4 20 -9z
m105 -32 c28 -12 50 -23 48 -25 -2 -2 -30 7 -63 21 -32 13 -54 24 -48 25 6 0
35 -10 63 -21z m-929 -14 c-14 -8 -29 -14 -35 -14 -5 0 1 6 15 14 14 8 30 14
35 14 6 0 -1 -6 -15 -14z m-50 -19 c0 -2 -7 -7 -16 -10 -8 -3 -12 -2 -9 4 6
10 25 14 25 6z m1100 -21 c28 -14 50 -28 50 -30 0 -5 -99 42 -109 51 -12 11
15 1 59 -21z m-1140 1 c0 -2 -7 -7 -16 -10 -8 -3 -12 -2 -9 4 6 10 25 14 25 6z
m-50 -27 c-25 -17 -76 -42 -68 -34 13 14 62 44 73 44 6 0 3 -4 -5 -10z m-80
-43 c0 -2 -25 -22 -56 -45 -30 -23 -52 -37 -49 -31 6 10 95 79 103 80 1 0 2
-2 2 -4z m1470 -62 c0 -3 -20 9 -45 26 -25 17 -45 33 -45 36 0 3 20 -9 45 -26
25 -17 45 -33 45 -36z m50 -39 c19 -19 32 -35 29 -35 -3 0 -20 16 -39 35 -19
19 -32 35 -29 35 3 0 20 -16 39 -35z m-1640 12 c0 -2 -15 -16 -32 -33 l-33
-29 29 33 c28 30 36 37 36 29z m1698 -72 c-3 -3 -9 2 -12 12 -6 14 -5 15 5 6
7 -7 10 -15 7 -18z m30 -30 c-3 -3 -9 2 -12 12 -6 14 -5 15 5 6 7 -7 10 -15 7
-18z m-1872 -47 c-31 -34 -75 -90 -98 -125 -42 -64 -59 -82 -37 -40 29 54 171
227 186 227 3 0 -20 -28 -51 -62z m2022 -135 c23 -34 42 -65 42 -70 0 -4 -21
24 -46 62 -26 39 -66 93 -90 122 -24 28 -44 54 -44 58 0 11 93 -105 138 -172z
m-2175 -78 c-3 -9 -8 -14 -10 -11 -3 3 -2 9 2 15 9 16 15 13 8 -4z m2247 -46
c12 -23 20 -43 18 -45 -3 -2 -14 17 -26 41 -27 56 -20 60 8 4z m-2289 -36
c-12 -20 -14 -14 -5 12 4 9 9 14 11 11 3 -2 0 -13 -6 -23z m-20 -46 c-10 -9
-11 -8 -5 6 3 10 9 15 12 12 3 -3 0 -11 -7 -18z m2358 -32 c0 -5 -6 1 -14 15
-8 14 -14 30 -14 35 0 6 6 -1 14 -15 8 -14 14 -29 14 -35z m-2388 -54 c-12
-34 -21 -68 -21 -75 0 -8 -4 -17 -9 -20 -5 -4 -3 15 4 41 23 80 38 123 43 119
2 -3 -5 -32 -17 -65z m2418 -36 c0 -5 -4 -3 -9 5 -5 8 -9 22 -9 30 0 16 17
-16 18 -35z m8 -37 c-3 -8 -6 -5 -6 6 -1 11 2 17 5 13 3 -3 4 -12 1 -19z m22
-63 c0 -5 -4 -3 -9 5 -5 8 -9 22 -9 30 0 16 17 -16 18 -35z m-2499 -42 c-11
-17 -11 -17 -6 0 3 10 6 24 7 30 0 9 2 9 5 0 3 -7 0 -20 -6 -30z m2510 -22 c0
-32 -6 -24 -14 19 -4 25 -3 31 4 20 5 -8 10 -26 10 -39z m-2513 -33 c-3 -7 -5
-2 -5 12 0 14 2 19 5 13 2 -7 2 -19 0 -25z m2520 -80 c-2 -13 -4 -5 -4 17 -1
22 1 32 4 23 2 -10 2 -28 0 -40z m-2530 10 c-3 -7 -5 -2 -5 12 0 14 2 19 5 13
2 -7 2 -19 0 -25z m0 -70 c-2 -13 -4 -5 -4 17 -1 22 1 32 4 23 2 -10 2 -28 0
-40z m2537 -14 c3 -8 2 -12 -4 -9 -6 3 -10 10 -10 16 0 14 7 11 14 -7z m-2534
-39 c0 -8 -3 -16 -7 -18 -5 -3 -8 5 -8 18 0 13 3 21 8 18 4 -2 7 -10 7 -18z
m2533 -30 c-3 -9 -8 -14 -10 -11 -3 3 -2 9 2 15 9 16 15 13 8 -4z m-2536 -52
c-3 -10 -5 -2 -5 17 0 19 2 27 5 18 2 -10 2 -26 0 -35z m2530 -10 c-3 -10 -5
-4 -5 12 0 17 2 24 5 18 2 -7 2 -21 0 -30z m-2521 -39 c1 -9 0 -13 -4 -10 -3
4 -7 14 -8 22 -1 9 0 13 4 10 3 -4 7 -14 8 -22z m2511 -46 c-3 -7 -5 -2 -5 12
0 14 2 19 5 13 2 -7 2 -19 0 -25z m-2510 0 c-3 -8 -6 -5 -6 6 -1 11 2 17 5 13
3 -3 4 -12 1 -19z m2500 -40 c-3 -8 -6 -5 -6 6 -1 11 2 17 5 13 3 -3 4 -12 1
-19z m-13 -82 c-3 -15 -8 -25 -11 -23 -2 3 -1 17 3 31 3 15 8 25 11 23 2 -3 1
-17 -3 -31z m-2457 -18 c-3 -8 -6 -5 -6 6 -1 11 2 17 5 13 3 -3 4 -12 1 -19z
m2433 -55 c-11 -17 -11 -17 -6 0 3 10 6 24 7 30 0 9 2 9 5 0 3 -7 0 -20 -6
-30z m-18 -55 c-8 -8 -9 -4 -5 13 4 13 8 18 11 10 2 -7 -1 -18 -6 -23z m-2368
-14 c3 -8 2 -12 -4 -9 -6 3 -10 10 -10 16 0 14 7 11 14 -7z m2347 -31 c-12
-20 -14 -14 -5 12 4 9 9 14 11 11 3 -2 0 -13 -6 -23z m-2312 -53 c11 -24 11
-24 -3 -6 -9 11 -16 24 -16 30 0 12 5 7 19 -24z m2292 3 c-12 -20 -14 -14 -5
12 4 9 9 14 11 11 3 -2 0 -13 -6 -23z m-2261 -68 c0 -5 -5 -3 -10 5 -5 8 -10
20 -10 25 0 6 5 3 10 -5 5 -8 10 -19 10 -25z"/>
<path d="M1847 2301 c-23 -12 -32 -23 -32 -41 0 -22 8 -28 61 -45 141 -46 194
-114 255 -322 50 -168 58 -184 107 -196 34 -8 56 19 71 86 7 32 30 88 52 125
44 75 47 94 20 138 -37 60 -185 160 -336 226 -98 43 -153 51 -198 29z"/>
<path d="M1268 2302 c-14 -2 -31 -9 -36 -15 -8 -9 0 -12 28 -13 21 0 50 -8 64
-18 26 -16 26 -20 25 -109 -2 -91 8 -130 37 -141 8 -3 8 7 0 34 -7 28 -6 52 2
87 25 100 25 121 -2 148 -14 14 -33 25 -43 26 -10 0 -25 1 -33 3 -8 1 -27 0
-42 -2z"/>
<path d="M1485 2233 c0 -38 -3 -95 -7 -128 -5 -35 -4 -50 1 -35 4 14 22 53 40
87 37 74 39 106 9 127 -38 27 -44 20 -43 -51z"/>
<path d="M934 2243 c-44 -19 -112 -48 -153 -63 -99 -39 -146 -72 -182 -128
-48 -75 -37 -113 72 -250 50 -63 57 -109 31 -208 -17 -64 -12 -97 12 -88 18 7
47 79 86 219 36 128 96 241 220 414 45 62 78 117 73 122 -23 23 -82 17 -159
-18z"/>
<path d="M1620 2246 c0 -13 -9 -44 -21 -70 -11 -26 -18 -52 -15 -59 3 -8 5 -7
5 3 1 8 16 31 35 51 42 47 49 65 30 84 -22 22 -34 19 -34 -9z"/>
<path d="M1645 2014 c-81 -27 -107 -98 -62 -165 12 -19 54 -55 92 -82 76 -52
115 -86 115 -100 0 -5 -17 5 -37 21 -21 16 -60 42 -88 58 -45 26 -59 29 -135
29 -112 0 -176 -30 -275 -129 -38 -39 -61 -57 -51 -41 11 17 53 62 95 101 74
69 75 71 75 120 0 94 -75 184 -153 184 -41 0 -102 -29 -143 -68 -38 -36 -35
-48 5 -19 94 71 163 75 211 11 25 -35 27 -117 4 -141 -17 -16 -18 -16 -18 8 0
77 -52 126 -121 115 -72 -11 -162 -79 -206 -153 -40 -69 -41 -138 -4 -269 20
-70 33 -142 36 -197 2 -48 7 -92 10 -97 15 -24 -16 -7 -41 23 -46 55 -65 123
-78 282 -6 64 -31 165 -42 165 -3 0 -2 -15 1 -32 3 -18 7 -91 9 -163 5 -141 9
-171 36 -225 26 -51 59 -85 115 -121 28 -17 71 -53 97 -79 98 -98 145 -90 227
37 35 55 65 88 102 113 76 51 89 72 90 144 l1 61 9 -45 c5 -25 12 -55 14 -67
3 -14 28 -34 69 -57 76 -42 130 -100 162 -172 29 -66 50 -79 104 -64 54 14 87
50 95 102 10 56 22 80 85 158 75 93 102 151 102 219 1 48 -2 70 -18 134 -1 4
-2 24 -3 45 -1 30 -3 34 -12 19 -6 -9 -12 -71 -14 -136 -3 -102 -7 -125 -28
-167 -33 -64 -84 -114 -97 -94 -17 27 0 111 46 227 72 179 63 256 -39 350 -66
61 -140 95 -218 101 -60 4 -68 2 -88 -19 -15 -16 -21 -33 -19 -50 3 -18 0 -25
-8 -22 -17 6 -38 59 -31 77 10 25 53 47 101 52 51 6 152 -11 176 -30 13 -9 13
-9 2 6 -32 41 -187 66 -257 42z m325 -194 c10 -6 6 -9 -18 -8 -97 3 -121 -160
-30 -208 43 -23 108 25 108 81 0 8 4 15 9 15 5 0 7 -12 6 -27 -11 -108 -110
-147 -184 -72 -50 49 -51 138 -3 195 28 33 80 44 112 24z m40 -75 c0 -29 -25
-39 -45 -19 -8 9 -15 17 -15 19 0 2 7 10 15 19 20 20 45 10 45 -19z m-877 -46
c15 -16 27 -37 28 -47 0 -9 2 -25 4 -35 11 -59 -45 -131 -96 -123 -35 5 -74
34 -88 64 -18 37 -13 47 9 19 45 -56 123 -40 136 28 6 36 -1 58 -14 40 -12
-17 -31 -15 -42 4 -7 15 -6 23 5 35 23 22 19 26 -27 26 -42 1 -43 1 -18 15 33
18 69 9 103 -26z m440 -40 c12 -7 24 -15 27 -19 3 -4 39 -23 80 -43 71 -35
109 -64 155 -117 14 -16 4 -12 -31 13 -62 45 -160 91 -174 82 -5 -3 -10 -14
-10 -24 0 -18 -18 -41 -33 -41 -5 0 -6 16 -3 36 6 31 5 35 -11 32 -21 -4 -31
-62 -14 -82 8 -10 6 -18 -9 -31 -19 -17 -20 -17 -28 6 -5 13 -12 31 -15 39 -3
8 -6 -1 -6 -22 -1 -31 -4 -35 -21 -31 -18 5 -20 13 -19 50 3 48 -16 78 -40 64
-10 -7 -11 -13 -2 -30 22 -40 -6 -55 -38 -20 -36 38 -118 5 -191 -78 -42 -49
-52 -48 -22 2 31 50 94 104 142 122 25 9 59 31 75 50 48 54 129 72 188 42z"/>
<path d="M2058 1232 c-45 -48 -59 -75 -64 -120 -7 -60 -23 -89 -67 -118 -30
-20 -57 -28 -95 -30 -29 -1 -60 -8 -69 -16 -18 -15 -135 -16 -243 -3 -40 4
-80 3 -104 -3 -30 -9 -48 -8 -81 3 -27 10 -59 13 -89 9 -64 -9 -121 15 -180
76 -27 27 -65 60 -85 72 -36 22 -111 96 -111 110 0 5 -4 8 -9 8 -4 0 -9 -23
-10 -52 0 -29 -10 -90 -22 -136 -14 -58 -18 -87 -10 -95 7 -7 -1 -16 -27 -28
-20 -10 -43 -29 -51 -41 -12 -19 -10 -19 18 5 21 17 44 27 65 27 38 0 86 -33
86 -58 0 -9 10 0 23 22 24 43 77 76 120 76 46 0 105 -39 123 -81 16 -35 18
-36 46 -25 39 15 79 -8 94 -54 15 -47 9 -60 -24 -51 -59 16 -132 -18 -159 -74
-14 -29 -19 -32 -36 -24 -43 24 -118 -15 -116 -61 0 -9 4 -5 9 8 11 25 65 53
89 45 9 -3 21 -12 27 -20 10 -11 15 -7 31 24 34 65 107 93 171 67 53 -21 87
-67 76 -101 -5 -15 -3 -15 7 2 16 26 29 35 55 35 24 0 50 -25 57 -55 4 -17 5
-16 7 5 1 23 2 23 10 5 6 -15 9 -16 9 -4 1 22 33 49 59 49 12 0 31 -10 43 -22
12 -13 19 -17 15 -10 -4 7 2 28 13 46 30 49 94 72 152 56 38 -11 89 -62 89
-90 0 -11 5 -20 11 -20 5 0 8 4 5 9 -3 5 6 13 22 18 40 14 81 -3 98 -41 11
-26 13 -28 14 -8 0 46 -69 85 -116 63 -18 -8 -24 -8 -24 2 0 24 -55 78 -94 91
-24 8 -51 10 -71 6 -28 -6 -34 -4 -39 13 -6 26 18 73 45 88 12 6 36 8 55 4 30
-5 35 -3 44 20 13 33 27 48 67 69 62 31 139 10 173 -47 l21 -35 29 29 c38 39
86 39 132 2 21 -18 28 -21 18 -8 -20 26 -38 38 -79 51 -32 10 -36 16 -62 95
-31 93 -36 116 -45 199 -3 30 -7 56 -8 58 -2 1 -19 -15 -38 -36z"/>
<path d="M1492 1199 c-41 -12 -119 -91 -155 -158 l-28 -51 27 -10 c14 -6 70
-9 123 -8 53 1 126 -1 163 -6 84 -11 114 -4 122 30 17 65 -127 217 -201 213
-10 0 -33 -5 -51 -10z"/>
<path d="M586 1019 c-14 -11 -26 -29 -26 -39 0 -10 -8 -21 -17 -23 -14 -4 -12
-5 5 -6 13 -1 22 5 22 14 0 46 84 72 122 38 14 -13 21 -14 30 -5 17 17 38 15
62 -5 18 -15 17 -13 -1 7 -20 22 -26 23 -53 13 -16 -6 -30 -7 -30 -3 0 5 -9
11 -20 15 -48 15 -68 14 -94 -6z"/>
<path d="M2343 1021 c-14 -14 -23 -15 -45 -7 -23 8 -31 7 -45 -8 -17 -18 -17
-18 5 -5 18 11 26 12 43 1 17 -11 24 -11 37 1 27 23 46 26 80 12 19 -9 34 -23
38 -39 3 -15 13 -26 23 -26 9 0 23 -6 31 -12 12 -11 12 -10 1 5 -7 9 -20 17
-28 17 -8 0 -12 4 -9 8 3 5 -5 21 -17 36 -28 34 -86 43 -114 17z"/>
<path d="M2670 1026 c0 -2 7 -7 16 -10 8 -3 12 -2 9 4 -6 10 -25 14 -25 6z"/>
<path d="M2694 989 c-3 -6 -1 -16 5 -22 6 -6 11 -19 11 -28 0 -21 -26 -33 -33
-15 -3 8 -20 24 -39 36 l-33 23 28 -28 c54 -52 58 -121 11 -169 -36 -35 -59
-38 -85 -10 -12 13 -27 24 -33 24 -6 -1 -1 -9 11 -19 37 -31 67 -100 66 -150
-3 -120 -97 -206 -212 -195 -35 4 -51 12 -73 37 l-27 32 18 -38 c21 -41 19
-65 -10 -96 -10 -11 -15 -22 -10 -26 9 -5 46 34 53 56 2 7 17 7 44 1 84 -19
184 31 226 111 26 52 28 138 4 186 -10 18 -16 34 -14 34 69 34 102 81 95 139
-4 25 -1 38 9 42 16 6 19 42 3 51 -6 4 -8 13 -5 21 6 17 0 19 -10 3z"/>
<path d="M327 972 c-20 -22 -21 -34 -5 -50 6 -6 12 -33 12 -60 1 -55 21 -91
62 -112 16 -8 30 -15 32 -16 2 -1 -4 -17 -14 -35 -25 -48 -23 -134 4 -186 47
-90 144 -132 252 -108 22 5 30 4 26 -4 -4 -6 9 -27 28 -48 19 -21 34 -31 33
-23 -2 9 -13 26 -25 38 -28 28 -29 80 -1 118 13 18 9 16 -13 -8 -91 -101 -268
-22 -291 129 -8 50 12 108 52 155 35 41 28 44 -14 7 -19 -16 -23 -17 -52 -3
-31 16 -63 65 -63 99 0 29 30 82 53 93 17 8 18 11 5 11 -9 1 -27 -12 -41 -28
-18 -22 -27 -27 -36 -18 -15 15 -14 27 6 49 9 10 14 18 11 18 -3 0 -12 -8 -21
-18z"/>
<path d="M1110 571 c0 -6 4 -12 8 -15 5 -3 9 1 9 9 0 8 -4 15 -9 15 -4 0 -8
-4 -8 -9z"/>
<path d="M1906 563 c-6 -14 -5 -15 5 -6 7 7 10 15 7 18 -3 3 -9 -2 -12 -12z"/>
<path d="M736 293 c-6 -14 -5 -15 5 -6 7 7 10 15 7 18 -3 3 -9 -2 -12 -12z"/>
<path d="M2311 282 c-2 -58 -58 -112 -115 -112 -41 0 -75 20 -74 44 2 62 -6
74 -12 19 -12 -108 -78 -173 -182 -181 -71 -5 -131 22 -170 78 -22 30 -27 45
-22 72 l5 33 -14 -30 c-18 -36 -42 -51 -82 -51 -29 1 -30 2 -28 46 2 43 2 44
-6 11 -13 -50 -44 -76 -90 -76 -46 0 -77 24 -91 69 -10 31 -10 31 -6 -6 6 -46
-4 -53 -50 -38 -25 9 -40 22 -49 44 l-14 31 2 -41 c3 -104 -142 -179 -254
-131 -69 30 -119 105 -119 178 0 53 -9 46 -12 -8 -1 -45 -23 -63 -74 -63 -48
0 -103 44 -104 83 0 9 -5 17 -11 17 -11 0 -6 -29 12 -66 23 -47 109 -71 159
-44 16 9 22 7 27 -7 42 -114 178 -174 289 -128 38 16 100 76 109 106 5 15 12
18 28 12 12 -4 35 -6 51 -5 15 1 41 -5 57 -13 35 -19 66 -19 101 -1 15 8 42
14 60 13 18 -1 42 2 54 6 17 6 24 0 42 -31 45 -81 163 -123 256 -92 44 14 103
70 122 116 12 29 17 33 33 25 49 -27 114 -13 153 32 19 21 33 78 25 99 -3 7
-6 3 -6 -10z"/>
</g>
</svg>
